<svg id="ib_logo" style="width:80px;" xmlns:rdf="http://www.w3.org/1999/02/22-rdf-syntax-ns#" xmlns="http://www.w3.org/2000/svg" enable-background="new 0 0 250 118.229" xml:space="preserve" viewBox="0 0 250 118.229" version="1.1" y="0px" x="0px" xmlns:cc="http://creativecommons.org/ns#" xmlns:dc="http://purl.org/dc/elements/1.1/"><metadata id="metadata3057"><rdf:RDF><cc:Work rdf:about=""><dc:format>image/svg+xml</dc:format><dc:type rdf:resource="http://purl.org/dc/dcmitype/StillImage"/><dc:title/></cc:Work></rdf:RDF></metadata><defs id="defs3055">
  </defs>
  <g id="g3025">
      <path id="path3027" d="m243,81.453-3.33,9.677h-29.739v-1.053h1.364c0.911,0,1.774-0.218,2.591-0.654,0.606-0.303,1.02-0.76,1.236-1.367,0.22-0.607,0.328-1.849,0.328-3.727v-25.074c0-2.448-0.246-3.955-0.739-4.525-0.683-0.758-1.821-1.138-3.416-1.138h-1.364v-1.054h29.739l0.428,8.453h-1.11c-0.398-2.03-0.841-3.424-1.323-4.184-0.485-0.759-1.201-1.338-2.149-1.736-0.759-0.285-2.097-0.427-4.013-0.427h-10.587v15.255h8.481c2.2,0,3.67-0.331,4.411-0.995,0.985-0.874,1.536-2.411,1.65-4.611h1.054v13.433h-1.054c-0.266-1.879-0.531-3.083-0.797-3.613-0.342-0.664-0.901-1.188-1.68-1.566-0.777-0.379-1.973-0.568-3.585-0.568h-8.481v12.721c0,1.708,0.075,2.747,0.229,3.116,0.151,0.37,0.417,0.664,0.796,0.882,0.38,0.219,1.1,0.328,2.163,0.328h6.546c2.182,0,3.766-0.152,4.753-0.455,0.986-0.305,1.935-0.901,2.845-1.794,1.176-1.176,2.381-2.949,3.615-5.322h1.12v-0.002z" fill="#ffffff"/>
      <polygon id="polygon3029" points="235.65,51.495,231.63,51.495,231.63,34.248,231.63,17,235.65,17,239.68,17,239.68,34.248,239.68,51.495" fill="#7ab800"/>
      <polygon id="polygon3031" points="226.17,51.495,222.14,51.495,222.14,37.123,222.14,22.749,226.17,22.749,230.19,22.749,230.19,37.123,230.19,51.495" fill="#7ab800"/>
      <polygon id="polygon3033" points="216.68,51.495,212.66,51.495,212.66,39.996,212.66,28.499,216.68,28.499,220.71,28.499,220.71,39.996,220.71,51.495" fill="#7ab800"/>
      <polygon id="polygon3035" points="207.2,51.495,203.17,51.495,203.17,42.872,203.17,34.248,207.2,34.248,211.22,34.248,211.22,42.872,211.22,51.495" fill="#7ab800"/>
      <path id="path3037" d="m206.86,52.538,0.427,9.05h-1.081c-0.208-1.594-0.493-2.732-0.854-3.415-0.588-1.101-1.372-1.912-2.349-2.434s-2.263-0.782-3.855-0.782h-5.436v29.484c0,2.372,0.256,3.852,0.768,4.439,0.721,0.798,1.831,1.195,3.33,1.195h1.338v1.053h-16.364v-1.053h1.365c1.632,0,2.79-0.493,3.473-1.479,0.417-0.607,0.626-1.993,0.626-4.156v-29.482h-4.639c-1.803,0-3.084,0.133-3.843,0.399-0.986,0.36-1.83,1.053-2.532,2.078-0.702,1.024-1.12,2.409-1.253,4.154h-1.081l0.456-9.051h31.504z" fill="#ffffff"/>
      <polygon id="polygon3039" points="197.71,51.495,193.68,51.495,193.68,45.746,193.68,39.996,197.71,39.996,201.73,39.996,201.73,45.746,201.73,51.495" fill="#7ab800"/>
      <path id="path3041" d="m178.94,90.077v1.053h-15.226v-1.053c1.536-0.075,2.575-0.332,3.116-0.768,0.54-0.438,0.812-0.969,0.812-1.596,0-0.834-0.38-2.152-1.139-3.955l-2.335-5.549h-14.939l-2.619,6.09c-0.646,1.498-0.968,2.618-0.968,3.359,0,0.588,0.279,1.104,0.841,1.55,0.559,0.445,1.768,0.735,3.628,0.868v1.053h-12.152v-1.053c1.613-0.285,2.655-0.654,3.131-1.11,0.967-0.911,2.038-2.76,3.217-5.549l13.574-31.762h0.996l13.434,32.103c1.081,2.581,2.063,4.255,2.945,5.022,0.881,0.771,2.108,1.202,3.684,1.297zm-15.568-13.973-6.545-15.596-6.717,15.596h13.262z" fill="#ffffff"/>
      <path id="path3043" d="m134.31,80.571c0,1.916-0.607,3.752-1.821,5.508-1.216,1.754-2.88,3.035-4.995,3.841-2.116,0.808-5.347,1.21-9.69,1.21h-18.218v-1.053h1.451c1.612,0,2.77-0.512,3.472-1.537,0.437-0.664,0.654-2.077,0.654-4.24v-24.93c0-2.391-0.274-3.9-0.825-4.525-0.739-0.834-1.84-1.252-3.301-1.252h-1.451v-1.054h16.676c3.113,0,5.607,0.229,7.485,0.685,2.847,0.682,5.02,1.892,6.518,3.627s2.249,3.733,2.249,5.991c0,1.936-0.589,3.667-1.765,5.193-1.177,1.529-2.912,2.662-5.208,3.402,2.675,0.568,4.676,1.48,6.005,2.73,1.841,1.746,2.761,3.881,2.761,6.404zm-6.604,0.484c0-1.498-0.408-2.941-1.223-4.326-0.816-1.385-2.146-2.477-3.984-3.273-1.841-0.797-4.117-1.195-6.831-1.195-1.177,0-2.183,0.02-3.017,0.057-0.835,0.039-1.509,0.105-2.021,0.199v15.824c2.201,0.512,4.372,0.77,6.518,0.77,3.434,0,6.052-0.774,7.854-2.32,1.804-1.546,2.704-3.458,2.704-5.736zm-2.248-14.4c0.74-1.232,1.11-2.58,1.11-4.041,0-2.258-0.921-4.184-2.761-5.778-1.841-1.594-4.524-2.391-8.055-2.391-1.896,0-3.604,0.209-5.122,0.626v14.828c0.702,0.133,1.504,0.232,2.405,0.299,0.9,0.066,1.892,0.1,2.974,0.1,2.77,0,4.853-0.299,6.247-0.896,1.394-0.599,2.462-1.515,3.202-2.747z" fill="#ffffff"/>
      <path id="path3045" d="m96.433,74.281c0,2.847-0.755,5.664-2.263,8.452-1.509,2.791-3.609,5-6.304,6.633-2.694,1.632-5.313,2.447-7.855,2.447-2.6,0-4.721-0.83-6.361-2.49s-2.461-3.81-2.461-6.447c0-2.788,0.801-5.588,2.404-8.395s3.747-5.027,6.432-6.659c2.686-1.632,5.28-2.448,7.784-2.448,2.505,0,4.567,0.825,6.19,2.477,1.622,1.65,2.434,3.793,2.434,6.43zm-4.725-1.964c0-1.764-0.432-3.115-1.296-4.055-0.862-0.939-1.978-1.408-3.343-1.408-2.79,0-5.355,1.996-7.698,5.99s-3.516,7.965-3.516,11.91c0,1.803,0.456,3.192,1.366,4.169,0.91,0.978,2.059,1.466,3.444,1.466,2.675,0,5.184-1.986,7.526-5.961s3.517-8.012,3.517-12.111z" fill="#7ab800"/>
      <path id="path3047" d="m80.752,54.133c0,0.665-0.22,1.224-0.655,1.678-0.437,0.456-0.996,0.683-1.68,0.683-0.588,0-1.066-0.169-1.438-0.511-0.369-0.342-0.555-0.75-0.555-1.224,0-0.303,0.123-0.679,0.37-1.125s0.37-0.744,0.37-0.896c0-0.266-0.086-0.465-0.257-0.598-0.246-0.19-0.607-0.285-1.081-0.285-1.195,0-2.267,0.379-3.217,1.138-1.271,1.006-2.408,2.581-3.413,4.724-0.514,1.121-1.452,3.9-2.819,8.339h4.184l-0.511,1.877h-4.156l-3.13,12.438c-1.387,5.482-2.779,9.724-4.184,12.721-1.992,4.231-4.137,7.153-6.432,8.766-1.745,1.233-3.491,1.85-5.237,1.85-1.139,0-2.106-0.342-2.903-1.024-0.588-0.474-0.882-1.091-0.882-1.85,0-0.607,0.242-1.135,0.725-1.58,0.484-0.445,1.077-0.668,1.778-0.668,0.513,0,0.944,0.16,1.295,0.484,0.351,0.321,0.527,0.691,0.527,1.108,0,0.419-0.199,0.808-0.599,1.167-0.303,0.266-0.454,0.466-0.454,0.599,0,0.171,0.065,0.303,0.198,0.397,0.171,0.134,0.438,0.199,0.797,0.199,0.816,0,1.675-0.256,2.575-0.768,0.901-0.513,1.703-1.276,2.405-2.291,0.702-1.016,1.366-2.48,1.992-4.397,0.266-0.797,0.977-3.425,2.134-7.883l4.952-19.269h-4.952l0.399-1.877c1.574,0,2.675-0.109,3.3-0.327,0.627-0.219,1.201-0.636,1.723-1.253,0.521-0.615,1.2-1.77,2.035-3.457,1.119-2.277,2.191-4.042,3.216-5.294,1.404-1.688,2.878-2.954,4.425-3.799,1.547-0.844,3.004-1.267,4.369-1.267,1.441,0,2.6,0.366,3.473,1.095,0.874,0.734,1.313,1.526,1.313,2.38z" fill="#7ab800"/>
      <path id="path3049" d="m50.043,84.755,0.882,0.541c-1.765,2.523-3.434,4.326-5.008,5.408-1.101,0.739-2.087,1.109-2.959,1.109-0.703,0-1.262-0.213-1.679-0.641-0.418-0.426-0.627-1-0.627-1.722,0-0.911,0.322-2.477,0.968-4.696l3.301-11.441c0.417-1.422,0.626-2.531,0.626-3.328,0-0.38-0.123-0.688-0.369-0.926-0.248-0.237-0.551-0.355-0.911-0.355-0.533,0-1.167,0.229-1.908,0.683-1.403,0.854-2.865,2.263-4.381,4.227-1.518,1.964-3.122,4.472-4.811,7.528-0.891,1.611-1.632,3.377-2.22,5.293l-1.422,4.695h-4.27l5.18-17.816c0.607-2.143,0.911-3.433,0.911-3.869,0-0.418-0.166-0.783-0.497-1.096-0.333-0.314-0.745-0.469-1.239-0.469-0.228,0-0.626,0.037-1.195,0.111l-1.082,0.172-0.171-1.025,9.848-1.764-3.786,12.949c3.548-5.293,6.267-8.774,8.153-10.443,1.889-1.67,3.705-2.506,5.451-2.506,0.95,0,1.731,0.314,2.349,0.939,0.616,0.625,0.924,1.441,0.924,2.447,0,1.139-0.274,2.657-0.825,4.553l-3.472,11.982c-0.397,1.385-0.597,2.229-0.597,2.533,0,0.266,0.075,0.488,0.228,0.669,0.151,0.18,0.312,0.269,0.483,0.269,0.228,0,0.502-0.122,0.825-0.369,1.005-0.795,2.105-2.011,3.3-3.642z" fill="#7ab800"/>
      <path id="path3051" d="m23.006,54.901c0.551,0.551,0.825,1.224,0.825,2.021,0,0.779-0.28,1.447-0.839,2.006-0.56,0.56-1.228,0.839-2.006,0.839s-1.446-0.279-2.006-0.839c-0.56-0.559-0.839-1.228-0.839-2.006,0-0.796,0.274-1.47,0.825-2.021,0.55-0.55,1.224-0.825,2.02-0.825,0.796-0.001,1.47,0.274,2.02,0.825z" fill="#7ab800"/>
      <path id="path3053" d="m21.356,65.374-5.636,19.95c-0.38,1.348-0.569,2.153-0.569,2.419,0,0.305,0.089,0.551,0.27,0.74s0.394,0.283,0.641,0.283c0.283,0,0.626-0.15,1.024-0.453,1.082-0.854,2.172-2.069,3.273-3.645l0.997,0.655c-1.292,1.974-2.808,3.634-4.555,4.98-1.29,1.005-2.523,1.509-3.699,1.509-0.779,0-1.415-0.232-1.908-0.698-0.494-0.465-0.74-1.048-0.74-1.749,0-0.703,0.237-1.869,0.711-3.502l3.701-12.75c0.608-2.086,0.911-3.395,0.911-3.927,0-0.417-0.147-0.758-0.441-1.024s-0.697-0.398-1.208-0.398c-0.418,0-1.281,0.104-2.59,0.313v-1.109l9.818-1.594z" fill="#7ab800"/>
    </g>
  </svg>
